# xmcd
#
# Track frame offsets: 
#        150
#        18001
#        29524
#        48135
#        60280
#        80020
#        96096
#        109904
#        121804
#        148038
#        168536
#        185899
#        207025
#        228732
#        243136
#        294293
#        307592
#        322645
#        337789
#        345896
#        363270
#        377882
#
# Disc length: 5290 seconds
#
# Revision: 0
# Processed by: cddbd v1.5.1PL0 Copyright (c) Steve Scherf et al.
# Submitted via: ExactAudioCopy v0.95a5
#
DISCID=1f14a816
DTITLE=ZZ Top - Rockpalast
DYEAR=1980
DGENRE=Blues
TTITLE0=I Thank You
TTITLE1=Waiting For The Bus
TTITLE2=Jesus Just Left Chicago
TTITLE3=Precious And Grace
TTITLE4=I'm Bad I'm Nationwide
TTITLE5=Manic Mechanic
TTITLE6=Lowdown In The Street
TTITLE7=I Heard It On The X
TTITLE8=Fool For Your Stockings
TTITLE9=Nasty Dogs, Funky Kings
TTITLE10=El Diabolo
TTITLE11=Cheap Sunglasses
TTITLE12=Arrested For Driving While Blind
TTITLE13=Beer Drinkers Hell Raisers
TTITLE14=La Grange
TTITLE15=She Loves My Automobile
TTITLE16=Hifi Mama
TTITLE17=Dust My Broom
TTITLE18=Jailhouse Rock
TTITLE19=Tush
TTITLE20=Tube Snake Boogie
TTITLE21=Just Get Paid
EXTD=
EXTT0=
EXTT1=
EXTT2=
EXTT3=
EXTT4=
EXTT5=
EXTT6=
EXTT7=
EXTT8=
EXTT9=
EXTT10=
EXTT11=
EXTT12=
EXTT13=
EXTT14=
EXTT15=
EXTT16=
EXTT17=
EXTT18=
EXTT19=
EXTT20=
EXTT21=
PLAYORDER=
